HIERARCHY
ROOT Hips
{
	OFFSET 0.00000 0.00000 0.00000
	CHANNELS 6 Xposition Yposition Zposition Zrotation Yrotation Xrotation 
	JOINT LHipJoint
	{
		OFFSET 0 0 0
		CHANNELS 3 Zrotation Yrotation Xrotation
		JOINT LeftHip
		{
			OFFSET 1.29432 -1.88279 0.59910
			CHANNELS 3 Zrotation Yrotation Xrotation
			JOINT LeftKnee
			{
				OFFSET 2.63039 -7.22694 0.00000
				CHANNELS 3 Zrotation Yrotation Xrotation
				JOINT LeftAnkle
				{
					OFFSET 2.70674 -7.43672 0.00000
					CHANNELS 3 Zrotation Yrotation Xrotation
					JOINT LeftToe
					{
						OFFSET 0.15066 -0.41394 2.09027
						CHANNELS 3 Zrotation Yrotation Xrotation
						End Site
						{
							OFFSET 0.00000 -0.00000 1.07518
						}
					}
				}
			}
		}
	}
	JOINT RHipJoint
	{
		OFFSET 0 0 0
		CHANNELS 3 Zrotation Yrotation Xrotation
		JOINT RightHip
		{
			OFFSET -1.37068 -1.88279 0.59910
			CHANNELS 3 Zrotation Yrotation Xrotation
			JOINT RightKnee
			{
				OFFSET -2.57023 -7.06166 0.00000
				CHANNELS 3 Zrotation Yrotation Xrotation
				JOINT RightAnkle
				{
					OFFSET -2.76461 -7.59570 0.00000
					CHANNELS 3 Zrotation Yrotation Xrotation
					JOINT RightToe
					{
						OFFSET -0.24175 -0.64785 2.19719
						CHANNELS 3 Zrotation Yrotation Xrotation
						End Site
						{
							OFFSET -0.00000 -0.00000 1.14803
						}
					}
				}
			}
		}
	}
	JOINT lowerback
	{
		OFFSET 0 0 0
		CHANNELS 3 Zrotation Yrotation Xrotation
		JOINT Chest
		{
			OFFSET -0.03138 2.03983 -0.23106
			CHANNELS 3 Zrotation Yrotation Xrotation
			JOINT Chest2
			{
				OFFSET -0.00325 2.06238 -0.06878
				CHANNELS 3 Zrotation Yrotation Xrotation
				JOINT lowerneck
				{
					OFFSET 0 0 0
					CHANNELS 3 Zrotation Yrotation Xrotation
					JOINT Neck
					{
						OFFSET -0.00002 1.75318 0.18090
						CHANNELS 3 Zrotation Yrotation Xrotation
						JOINT Head
						{
							OFFSET 0.08806 1.75856 -0.25387
							CHANNELS 3 Zrotation Yrotation Xrotation
							End Site
							{
								OFFSET 0.02554 1.78597 -0.10684
							}
						}
					}
				}
				JOINT LeftCollar
				{
					OFFSET 0 0 0
					CHANNELS 3 Zrotation Yrotation Xrotation
					JOINT LeftShoulder
					{
						OFFSET 3.09657 1.33597 -0.04414
CHANNELS 3 Zrotation Xrotation Yrotation
						JOINT LeftElbow
						{
OFFSET 0 -5.342980 -0.000000
CHANNELS 3 Zrotation Xrotation Yrotation
							JOINT LeftWrist
							{
OFFSET 0 -3.672620 -0.000000
CHANNELS 3 Zrotation Xrotation Yrotation
								JOINT lhand
								{
									OFFSET 0 0 0
CHANNELS 3 Zrotation Xrotation Yrotation
									JOINT LFingers
									{
OFFSET 0 -0.599300 -0.000000
CHANNELS 3 Zrotation Xrotation Yrotation
										End Site
										{
OFFSET 0 -0.483170 -0.000000
										}
									}
								}
								JOINT LThumb
								{
OFFSET 0 0.000000 0.000000
CHANNELS 3 Zrotation Xrotation Yrotation
									End Site
									{
OFFSET 0 -0.490550 0.490550
									}
								}
							}
						}
					}
				}
				JOINT RightCollar
				{
					OFFSET 0 0 0
					CHANNELS 3 Zrotation Yrotation Xrotation
					JOINT RightShoulder
					{
						OFFSET -3.16460 1.32273 -0.23382
CHANNELS 3 Zrotation Xrotation Yrotation
						JOINT RightElbow
						{
OFFSET 0 -5.549670 0.033480
CHANNELS 3 Zrotation Xrotation Yrotation
							JOINT RightWrist
							{
OFFSET 0 -3.694010 0.000000
CHANNELS 3 Zrotation Xrotation Yrotation
								JOINT rhand
								{
									OFFSET 0 0 0
CHANNELS 3 Zrotation Xrotation Yrotation
									JOINT RFingers
									{
OFFSET 0 -0.638110 0.000000
CHANNELS 3 Zrotation Xrotation Yrotation
										End Site
										{
OFFSET 0 -0.514460 0.000000
										}
									}
								}
								JOINT RThumb
								{
OFFSET 0 0.000000 0.000000
CHANNELS 3 Zrotation Xrotation Yrotation
									End Site
									{
OFFSET 0 -0.522320 0.522320
									}
								}
							}
						}
					}
				}
			}
		}
	}
}
MOTION
Frames: 7
Frame Time: 0.008333333333333333
16.860856 13.570885 9.928190 47.258805 -82.857499 -64.781430 0.000000 0.000000 0.000000 2.686449 -17.835086 -38.177165 3.443718 11.380804 33.575250 1.635255 4.649438 23.124810 0.073585 1.616361 4.450300 0.000000 0.000000 0.000000 -11.961847 9.454003 -45.134880 -7.533309 -15.764981 50.863587 -0.388553 -16.957885 15.417740 -1.447677 7.605414 -21.522221 6.199325 3.035822 30.504575 -0.359129 3.840320 15.359134 -5.000316 1.705766 1.302208 -9.739386 -9.530523 -7.493908 22.615937 -11.753083 -9.209638 8.030143 -6.030580 0.684885 0.000000 0.000000 0.000000 6.877394 -17.779478 -63.735810 74.601082 -59.083734 46.705211 2.338478 26.836315 -32.438569 0.000000 0.000000 0.000000 -7.125000 0.000000 0.000000 -33.623672 59.131674 12.471337 0.000000 0.000000 0.000000 -147.210350 -66.974422 -120.647434 -12.724493 -20.882098 -2.354155 -17.590643 -6.247635 2.776344 0.000000 0.000000 0.000000 7.125000 0.000000 0.000000 7.301200 32.831222 2.191969
16.814424 13.585978 9.936155 47.805408 -82.963940 -64.723319 0.000000 0.000000 0.000000 3.011698 -17.765665 -38.593435 3.447349 11.386192 33.593745 1.581301 4.722787 22.719099 0.184381 2.715140 7.489603 0.000000 0.000000 0.000000 -12.300186 9.795473 -45.527198 -7.552125 -15.779744 50.932933 -0.372784 -16.724440 15.160176 -1.560292 7.882376 -22.357689 6.568294 2.747435 30.748413 -0.394266 3.577056 15.298651 -5.193011 1.589021 1.132657 -9.938515 -9.449866 -7.607947 22.548410 -11.653761 -8.957666 8.038455 -5.954720 0.766900 0.000000 0.000000 0.000000 7.031416 -17.417206 -63.089681 76.252510 -59.272363 48.123492 -1.453502 27.104341 -32.358550 0.000000 0.000000 0.000000 -7.125000 0.000000 0.000000 -37.200913 58.218135 13.203347 0.000000 0.000000 0.000000 -148.977383 -66.657220 -121.635814 -12.876863 -21.106397 -2.408866 -18.014603 -7.307627 3.184809 0.000000 0.000000 0.000000 7.125000 0.000000 0.000000 6.998719 33.270073 2.025873
16.762368 13.573795 9.938577 50.805799 -82.723412 -67.075804 0.000000 0.000000 0.000000 2.331626 -17.103024 -39.207284 3.426138 11.354799 33.486018 1.620577 2.325468 23.463471 0.037651 -0.075072 -0.203559 0.000000 0.000000 0.000000 -13.332658 10.369328 -45.976937 -7.603737 -15.819833 51.122341 -0.330810 -16.186213 14.506854 -1.569165 7.904145 -22.423352 6.091411 2.695717 31.168477 -0.356623 3.406385 15.198422 -4.857389 1.451708 0.759075 -10.043428 -9.344031 -8.129918 22.145834 -11.544421 -8.390647 7.898287 -5.833191 0.969153 0.000000 0.000000 0.000000 6.940965 -16.960306 -62.953043 77.340243 -59.385331 49.058946 1.111787 28.070287 -31.493343 0.000000 0.000000 0.000000 -7.125000 0.000000 0.000000 -33.945576 58.071292 11.744258 0.000000 0.000000 0.000000 -151.774315 -66.523662 -124.786140 -13.108219 -21.445426 -2.492785 -18.341825 -7.230118 3.515864 0.000000 0.000000 0.000000 7.125000 0.000000 0.000000 6.766228 33.626679 1.898268
16.708237 13.587218 9.942469 53.182274 -82.617883 -68.718810 0.000000 0.000000 0.000000 2.028089 -16.838701 -39.629441 3.378148 11.283325 33.241579 1.490134 0.385057 22.974230 0.059427 -1.572571 -4.325696 0.000000 0.000000 0.000000 -14.369520 11.212453 -46.224537 -7.654237 -15.858962 51.307682 -0.254509 -15.573369 13.477976 -1.356205 7.370172 -20.817582 6.087688 2.676182 31.165513 -0.497100 3.370901 15.199224 -5.002109 1.441434 0.767922 -9.721567 -9.423420 -8.158110 22.075601 -11.632706 -8.734506 7.823266 -5.905773 0.862584 0.000000 0.000000 0.000000 7.297896 -16.786493 -63.150420 77.995716 -59.448247 49.623203 2.719557 28.576030 -31.519847 0.000000 0.000000 0.000000 -7.125000 0.000000 0.000000 -32.412730 58.448308 11.427889 0.000000 0.000000 0.000000 -153.407813 -66.056805 -126.890035 -13.236632 -21.632909 -2.539887 -18.661214 -6.831356 3.492759 0.000000 0.000000 0.000000 7.125000 0.000000 0.000000 6.504291 33.613610 1.826115
16.665722 13.606939 9.954235 52.995208 -82.887526 -67.593128 0.000000 0.000000 0.000000 2.539644 -16.913492 -40.226706 3.331641 11.213447 33.003296 1.350682 -0.619913 22.211282 0.081367 -1.801805 -4.959165 0.000000 0.000000 0.000000 -14.978603 12.039579 -46.660876 -7.686921 -15.884101 51.427072 -0.179353 -15.249216 12.564995 -1.084542 6.612419 -18.574381 6.667880 2.475840 30.976045 -0.501559 3.282795 15.082110 -5.307842 1.438687 0.757347 -10.154295 -9.428123 -8.073713 22.539704 -11.614456 -8.730886 8.046811 -5.894937 0.915794 0.000000 0.000000 0.000000 7.540780 -16.471990 -63.068996 79.045726 -59.540968 50.528001 1.286819 29.026308 -32.331094 0.000000 0.000000 0.000000 -7.125000 0.000000 0.000000 -34.551181 58.804251 12.600030 0.000000 0.000000 0.000000 -154.329791 -65.531789 -127.029212 -13.309162 -21.738520 -2.566705 -19.025571 -7.479090 3.767480 0.000000 0.000000 0.000000 7.125000 0.000000 0.000000 6.233970 33.914841 1.703446
16.620655 13.617550 9.967836 55.002045 -82.849946 -68.766014 0.000000 0.000000 0.000000 2.651989 -16.979047 -40.732889 3.298532 11.163330 32.832715 1.262232 -1.554806 21.840797 0.150529 -2.496040 -6.878841 0.000000 0.000000 0.000000 -15.974743 12.736036 -47.062868 -7.719519 -15.908991 51.546034 -0.136972 -14.405658 11.628347 -0.851700 5.879635 -16.437348 6.455749 2.315624 31.151467 -0.421773 3.047340 14.942323 -5.043743 1.290817 0.459624 -10.698148 -9.315466 -8.229881 22.557185 -11.421321 -8.627538 8.152603 -5.770422 0.975493 0.000000 0.000000 0.000000 7.283777 -15.955605 -62.242246 80.058791 -59.622834 51.401575 -0.226056 29.673475 -31.565738 0.000000 0.000000 0.000000 -7.125000 0.000000 0.000000 -35.297016 57.844835 12.082413 0.000000 0.000000 0.000000 -156.821252 -65.494147 -129.131071 -13.504460 -22.021797 -2.639543 -18.748727 -7.298826 3.827482 0.000000 0.000000 0.000000 7.125000 0.000000 0.000000 6.465630 33.967593 1.759374
16.570549 13.620102 9.974425 57.203110 -82.527011 -70.134461 0.000000 0.000000 0.000000 2.641479 -17.288255 -41.368839 3.279461 11.134251 32.734066 1.249118 -1.483428 21.701066 0.113947 -2.175636 -5.991418 0.000000 0.000000 0.000000 -17.339796 13.312092 -47.423307 -7.751017 -15.933054 51.660679 -0.096877 -13.467352 10.607152 -0.690255 5.310992 -14.797830 5.977466 2.128408 31.356489 -0.491844 2.698420 14.825512 -4.762140 1.078272 0.150287 -10.705685 -9.171473 -8.588577 22.194866 -11.206761 -8.595806 8.043299 -5.642052 0.977786 0.000000 0.000000 0.000000 7.072564 -15.399589 -61.299643 80.862690 -59.682121 52.095331 -0.862279 30.242943 -28.067493 0.000000 0.000000 0.000000 -7.125000 0.000000 0.000000 -32.966250 54.813574 8.648634 0.000000 0.000000 0.000000 -159.783304 -65.380122 -132.212732 -13.638914 -22.216178 -2.690089 -19.176133 -6.642147 3.941654 0.000000 0.000000 0.000000 7.125000 0.000000 0.000000 6.127610 34.103588 1.646093
